<svg width="1024" height="1024" viewBox="0 0 1024 1024" fill="none" xmlns="http://www.w3.org/2000/svg">
  <defs>
    <linearGradient id="drop" x1="312" y1="214" x2="684" y2="814" gradientUnits="userSpaceOnUse">
      <stop stop-color="#C52B55"/>
      <stop offset="1" stop-color="#7F1737"/>
    </linearGradient>
    <linearGradient id="heart" x1="442" y1="355" x2="644" y2="542" gradientUnits="userSpaceOnUse">
      <stop stop-color="#FFFFFF"/>
      <stop offset="1" stop-color="#FFE7EE"/>
    </linearGradient>
  </defs>
  <path d="M512 222C424.202 222 346 293.852 346 393.851C346 568.408 503.421 693.63 512 806C520.579 693.63 678 568.408 678 393.851C678 293.852 599.798 222 512 222Z" fill="url(#drop)"/>
  <path d="M442 410C442 379.624 466.624 355 497 355C516.212 355 533.112 364.845 543 380.056C552.888 364.845 569.788 355 589 355C619.376 355 644 379.624 644 410C644 468.721 587.116 500.832 551.712 535.758C546.157 541.239 539.843 541.239 534.288 535.758C498.884 500.832 442 468.721 442 410Z" fill="url(#heart)"/>
  <rect x="484" y="438" width="56" height="160" rx="24" fill="#B52149"/>
  <rect x="432" y="490" width="160" height="56" rx="24" fill="#B52149"/>
</svg>
