<svg width="1024" height="1024" viewBox="0 0 1024 1024" fill="none" xmlns="http://www.w3.org/2000/svg">
  <defs>
    <linearGradient id="bg" x1="164" y1="112" x2="864" y2="924" gradientUnits="userSpaceOnUse">
      <stop stop-color="#FFF3F0"/>
      <stop offset="1" stop-color="#F6DDE4"/>
    </linearGradient>
    <linearGradient id="panel" x1="250" y1="174" x2="810" y2="864" gradientUnits="userSpaceOnUse">
      <stop stop-color="#B3294A"/>
      <stop offset="1" stop-color="#7A1734"/>
    </linearGradient>
    <filter id="shadow" x="140" y="120" width="744" height="808" filterUnits="userSpaceOnUse" color-interpolation-filters="sRGB">
      <feFlood flood-opacity="0" result="BackgroundImageFix"/>
      <feColorMatrix in="SourceAlpha" type="matrix" values="0 0 0 0 0 0 0 0 0 0 0 0 0 0 0 0 0 0 127 0" result="hardAlpha"/>
      <feOffset dy="24"/>
      <feGaussianBlur stdDeviation="34"/>
      <feColorMatrix type="matrix" values="0 0 0 0 0.309804 0 0 0 0 0.0470588 0 0 0 0 0.133333 0 0 0 0.18 0"/>
      <feBlend mode="normal" in2="BackgroundImageFix" result="effect1_dropShadow_1_2"/>
      <feBlend mode="normal" in="SourceGraphic" in2="effect1_dropShadow_1_2" result="shape"/>
    </filter>
  </defs>
  <rect width="1024" height="1024" rx="240" fill="url(#bg)"/>
  <circle cx="798" cy="226" r="94" fill="#FFFFFF" fill-opacity="0.35"/>
  <circle cx="232" cy="808" r="118" fill="#FFFFFF" fill-opacity="0.24"/>
  <g filter="url(#shadow)">
    <path d="M512 224C427.531 224 352 292.401 352 388.25C352 557.402 505.252 685.517 512 800C518.748 685.517 672 557.402 672 388.25C672 292.401 596.469 224 512 224Z" fill="url(#panel)"/>
  </g>
  <path d="M428 446C428 391.324 472.324 347 527 347C557.143 347 584.14 360.485 602.289 381.748C620.437 360.485 647.434 347 677.578 347C732.254 347 776.578 391.324 776.578 446C776.578 519.701 704.861 559.503 634.651 619.141C624.804 627.507 610.663 627.507 600.816 619.141C530.607 559.503 428 519.701 428 446Z" fill="white" fill-opacity="0.96" transform="translate(-90 36) scale(0.78)"/>
  <rect x="474" y="430" width="76" height="214" rx="26" fill="#9F1E40"/>
  <rect x="405" y="499" width="214" height="76" rx="26" fill="#9F1E40"/>
</svg>
